# xmcd CD database file
#
# Track frame offsets:
#	150
#	14120
#	24585
#	39272
#	65772
#	84010
#	101447
#	116368
#	131963
#	151690
#	164787
#	204092
#	221384
#	244726
#	262182
#
# Disc length: 3637 seconds
#
# Revision: 1
# Processed by: cddbd v1.5.2PL0 Copyright (c) Steve Scherf et al.
# Submitted via: CDex 1.70beta2
#
DISCID=c80e330f
DTITLE=Adrian Jimenez - Armonica Blues
DYEAR=2006
DGENRE=Blues
TTITLE0=Mistery Train
TTITLE1=Rockin This joint Tonight
TTITLE2=Re-Boogie
TTITLE3=Strange Things Happen
TTITLE4=My Baby Left Me Out On The Road
TTITLE5=Martelli Blues
TTITLE6=One Way Out
TTITLE7=Down in Virginia
TTITLE8=What Have I Done
TTITLE9=Jumpin With Friends
TTITLE10=Nigth Time Is The Right Time
TTITLE11=Cabeza
TTITLE12=Pesadilla en Re
TTITLE13=Jump The Boogie
TTITLE14=Rodando
EXTD=www.adrianjimenez.com.ar YEAR: 2006
EXTT0=
EXTT1=
EXTT2=
EXTT3=
EXTT4=
EXTT5=
EXTT6=
EXTT7=
EXTT8=
EXTT9=
EXTT10=
EXTT11=
EXTT12=
EXTT13=
EXTT14=
PLAYORDER=
